<svg width="106" height="33" viewBox="0 0 106 33" fill="none" xmlns="http://www.w3.org/2000/svg">
<g clip-path="url(#clip0_3213_1530)">
<path d="M13.3123 1.24614L8.78785 1.91423L0.53479 16.5818L8.78785 31.2495L13.3123 31.9175L4.5287 16.5818L13.3123 1.24614ZM24.9075 1.24614L29.4319 1.91423L37.6849 16.5818L29.4319 31.2419L24.9075 31.91L33.691 16.5743L24.9075 1.24614Z" fill="black"/>
<path d="M13.3122 1.24622L19.1098 0.578125V16.5819H4.52863L13.3122 1.24622Z" fill="#F3F3F3"/>
<path d="M13.3122 31.9101L19.1098 32.5782V16.582H4.52863L13.3122 31.9101Z" fill="#D9D9D9"/>
<path d="M24.9074 31.9101L19.1098 32.5782V16.582H33.691L24.9074 31.9101Z" fill="#BCBCBC"/>
<path d="M24.9074 1.24622L19.1098 0.578125V16.5819H33.691L24.9074 1.24622Z" fill="#E9E9E9"/>
<path d="M104.816 24.675V28.0002C104.838 28.2584 104.876 28.433 104.945 28.5393C105.005 28.638 105.142 28.7139 105.346 28.7518L105.286 30.3689C104.74 30.3689 104.308 30.331 103.982 30.255C103.656 30.1791 103.33 30.0273 102.997 29.8071C102.231 30.1791 101.451 30.3689 100.648 30.3689C98.9954 30.3689 98.1693 29.4959 98.1693 27.7421C98.1693 26.8918 98.3967 26.2845 98.859 25.9276C99.3137 25.5708 100.019 25.3582 100.966 25.2975L102.671 25.1684V24.675C102.671 24.3409 102.595 24.1208 102.451 23.9917C102.3 23.8702 102.065 23.8095 101.731 23.8095L98.7302 23.9386L98.6695 22.4505C99.8063 22.1393 100.89 21.9874 101.921 21.9874C102.951 21.9874 103.687 22.2 104.141 22.6252C104.588 23.0503 104.816 23.7336 104.816 24.675ZM56.1159 23.0807C56.6767 22.3518 57.624 21.9874 58.9427 21.9874C60.2613 21.9874 61.2087 22.3518 61.7695 23.0807C62.3303 23.8095 62.6183 24.842 62.6183 26.163C62.6183 28.972 61.3906 30.3689 58.9427 30.3689C56.4948 30.3689 55.2671 28.9644 55.2671 26.163C55.2747 24.842 55.5551 23.8171 56.1159 23.0807ZM83.7019 24.675V28.0002C83.7246 28.2584 83.7625 28.433 83.8307 28.5393C83.8913 28.638 84.0277 28.7139 84.2324 28.7518L84.1717 30.3689C83.6261 30.3689 83.1941 30.331 82.8682 30.255C82.5423 30.1791 82.2165 30.0273 81.883 29.8071C81.1176 30.1791 80.337 30.3689 79.5336 30.3689C77.8815 30.3689 77.0555 29.4959 77.0555 27.7421C77.0555 26.8918 77.2828 26.2845 77.7451 25.9276C78.1998 25.5708 78.9046 25.3582 79.8519 25.2975L81.5571 25.1684V24.675C81.5571 24.3409 81.4813 24.1208 81.3298 23.9917C81.1782 23.8702 80.9433 23.8095 80.6098 23.8095L77.6087 23.9386L77.5481 22.4505C78.6848 22.1393 79.7686 21.9874 80.7993 21.9874C81.83 21.9874 82.5651 22.2 83.0198 22.6252C83.4745 23.0503 83.7019 23.7336 83.7019 24.675ZM66.3242 30.1791H64.187V22.1772H66.309V22.6252C67.0442 22.2 67.6732 21.9874 68.1961 21.9874C69.0601 21.9874 69.727 22.238 70.1893 22.739C71.1669 22.238 72.0612 21.9874 72.8721 21.9874C73.9255 21.9874 74.6606 22.2911 75.0699 22.9061C75.4791 23.521 75.6837 24.5004 75.6837 25.8441V30.1791H73.5466V25.9049C73.5466 25.2216 73.4708 24.7205 73.3268 24.3941C73.1752 24.0676 72.8797 23.9082 72.4325 23.9082C72.0915 23.9082 71.6747 23.9841 71.1896 24.1284L70.9471 24.2119C70.9926 25.009 71.0078 25.6164 71.0078 26.0339V30.1791H68.8706V26.0643C68.8706 25.2747 68.8024 24.7205 68.666 24.3941C68.5296 24.0676 68.2264 23.9082 67.7565 23.9082C67.3397 23.9082 66.9305 23.9841 66.5288 24.1284L66.3394 24.1967V30.1791H66.3242ZM87.8852 30.1791H85.7481V22.1772H87.8701V22.6252C88.5976 22.2 89.257 21.9874 89.8632 21.9874C90.9242 21.9874 91.6594 22.2987 92.0686 22.9288C92.4703 23.559 92.6749 24.5307 92.6749 25.8441V30.1791H90.5377V25.9049C90.5377 25.2216 90.4544 24.7205 90.2952 24.3941C90.1361 24.0676 89.8178 23.9082 89.3403 23.9082C88.9008 23.9082 88.4839 23.9841 88.0823 24.1284L87.8928 24.1967V30.1791H87.8852ZM94.5771 30.1791V22.1772H96.7143V30.1791H94.5771ZM48.3099 26.5274V30.1715H46.1046V19.2999H50.3183C52.8722 19.2999 54.153 20.4918 54.153 22.8833C54.153 24.303 53.6225 25.3507 52.5539 26.0187L54.1 30.1791H51.69L50.4319 26.535H48.3099V26.5274ZM80.1096 26.7855C79.5109 26.8387 79.2153 27.1575 79.2153 27.7421C79.2153 28.3267 79.473 28.6228 79.9959 28.6228C80.3976 28.6228 80.8447 28.562 81.3222 28.433L81.5647 28.3722V26.6565L80.1096 26.7855ZM101.224 26.7855C100.625 26.8387 100.329 27.1575 100.329 27.7421C100.329 28.3267 100.587 28.6228 101.11 28.6228C101.511 28.6228 101.959 28.562 102.436 28.433L102.679 28.3722V26.6565L101.224 26.7855ZM57.7756 27.9699C57.9954 28.3571 58.3819 28.5469 58.9503 28.5469C59.5187 28.5469 59.9052 28.3571 60.1249 27.9699C60.3447 27.5827 60.4508 26.9829 60.4508 26.163C60.4508 25.3431 60.3447 24.7433 60.1249 24.3713C59.9052 23.9993 59.5187 23.8095 58.9503 23.8095C58.3894 23.8095 57.9954 23.9993 57.7756 24.3713C57.5558 24.7433 57.4497 25.3431 57.4497 26.163C57.4497 26.9829 57.5558 27.5903 57.7756 27.9699ZM51.5157 24.1663C51.7734 23.8475 51.9022 23.4223 51.9022 22.9061C51.9022 22.3822 51.7658 21.9647 51.4929 21.661C51.2201 21.3497 50.826 21.1979 50.3183 21.1979H48.3024V24.6522H50.3486C50.8791 24.6446 51.2656 24.4852 51.5157 24.1663ZM94.5771 21.1523V18.981H96.7143V21.1523H94.5771ZM52.9859 14.0007C51.8567 14.2437 50.8412 14.3651 49.9393 14.3651C49.0375 14.3651 48.3099 14.2512 47.7643 14.0311C47.2186 13.8109 46.7942 13.4465 46.4835 12.9606C46.1728 12.4671 45.9606 11.8977 45.8469 11.2297C45.7332 10.5692 45.6726 9.73405 45.6726 8.73191C45.6726 6.62895 45.9682 5.1637 46.5593 4.33618C47.1504 3.50866 48.2417 3.0987 49.8257 3.0987C50.7427 3.0987 51.8037 3.24295 53.0011 3.53144L52.9405 5.29277C51.887 5.14093 51.0079 5.05742 50.3107 5.05742C49.6135 5.05742 49.1133 5.14852 48.8177 5.33832C48.5221 5.52812 48.3024 5.87735 48.1508 6.40119C48.0068 6.92503 47.9386 7.81329 47.9386 9.07355C47.9386 10.3338 48.0826 11.2069 48.3782 11.6928C48.6737 12.1787 49.2573 12.4216 50.1364 12.4216C51.0155 12.4216 51.9477 12.3457 52.9405 12.2014L52.9859 14.0007ZM73.8725 12.1559C74.1225 12.376 74.4863 12.4823 74.9486 12.4823C75.9414 12.4823 76.8205 12.452 77.6011 12.3836L78.0482 12.3381L78.0786 13.9248C76.8508 14.2209 75.7444 14.3727 74.7591 14.3727C73.5542 14.3727 72.6826 14.0539 72.137 13.4161C71.5913 12.7784 71.3261 11.7383 71.3261 10.2959C71.3261 7.4261 72.5007 5.99123 74.8577 5.99123C77.1767 5.99123 78.3362 7.19834 78.3362 9.60499L78.1771 11.093H73.4784C73.4935 11.5789 73.6224 11.9357 73.8725 12.1559ZM54.8881 7.08446C55.449 6.35564 56.3963 5.99123 57.7149 5.99123C59.0336 5.99123 59.9809 6.35564 60.5418 7.08446C61.1026 7.81329 61.3906 8.8382 61.3906 10.1668C61.3906 12.9758 60.1628 14.3727 57.7149 14.3727C55.2671 14.3727 54.0393 12.9682 54.0393 10.1668C54.0393 8.8382 54.3273 7.81329 54.8881 7.08446ZM69.7421 2.97723V14.1753H67.6201V13.8413C66.8774 14.1905 66.2333 14.3651 65.6876 14.3651C64.5281 14.3651 63.7172 14.0311 63.2625 13.3554C62.8077 12.6797 62.5728 11.6168 62.5728 10.1668C62.5728 8.70914 62.8456 7.64627 63.3989 6.98577C63.9445 6.31768 64.7782 5.98363 65.8846 5.98363C66.2257 5.98363 66.6956 6.03678 67.3094 6.14306L67.6126 6.2038V2.97723H69.7421ZM89.454 7.08446C90.0148 6.35564 90.9621 5.99123 92.2808 5.99123C93.5995 5.99123 94.5468 6.35564 95.1076 7.08446C95.6684 7.81329 95.9564 8.8382 95.9564 10.1668C95.9564 12.9758 94.7362 14.3727 92.2808 14.3727C89.8329 14.3727 88.6052 12.9682 88.6052 10.1668C88.6052 8.8382 88.8856 7.81329 89.454 7.08446ZM97.5176 14.1753V6.18102H99.6396V7.03132C100.534 6.49989 101.383 6.15066 102.194 5.99123V8.15493C101.33 8.33713 100.587 8.51934 99.973 8.71673L99.6547 8.83061V14.1905H97.5176V14.1753ZM85.9072 8.00309V14.1753H83.7701V8.00309H82.9061V6.18102H83.7701V5.8242C83.7701 4.67023 83.9368 3.88067 84.2778 3.44034C84.6189 3 85.2252 2.78743 86.0967 2.78743C86.4832 2.78743 86.9758 2.84057 87.5821 2.94686L87.9155 2.99241L87.8852 4.73856C87.4154 4.71578 87.0213 4.70819 86.703 4.70819C86.3847 4.70819 86.1725 4.7917 86.0664 4.96631C85.9603 5.14093 85.9072 5.42942 85.9072 5.84698V6.18102H87.8398V8.00309H85.9072ZM91.1061 11.9737C91.3259 12.3609 91.7124 12.5507 92.2808 12.5507C92.8492 12.5507 93.2357 12.3609 93.4555 11.9737C93.6753 11.5865 93.7814 10.9867 93.7814 10.1668C93.7814 9.34686 93.6753 8.7471 93.4555 8.37509C93.2357 8.00309 92.8492 7.81329 92.2808 7.81329C91.7124 7.81329 91.3259 8.00309 91.1061 8.37509C90.8863 8.7471 90.7802 9.34686 90.7802 10.1668C90.7802 10.9867 90.8863 11.5865 91.1061 11.9737ZM56.5403 11.9737C56.7601 12.3609 57.1466 12.5507 57.7149 12.5507C58.2833 12.5507 58.6698 12.3609 58.8896 11.9737C59.1094 11.5865 59.2155 10.9867 59.2155 10.1668C59.2155 9.34686 59.1094 8.7471 58.8896 8.37509C58.6698 8.00309 58.2833 7.81329 57.7149 7.81329C57.1541 7.81329 56.7601 8.00309 56.5403 8.37509C56.3205 8.7471 56.2144 9.34686 56.2144 10.1668C56.2144 10.9867 56.3205 11.5865 56.5403 11.9737ZM67.3776 12.2546L67.605 12.209V8.00309C67.0214 7.8968 66.4985 7.84366 66.0362 7.84366C65.1723 7.84366 64.7403 8.61044 64.7403 10.144C64.7403 10.9791 64.8388 11.5713 65.0283 11.9205C65.2177 12.2698 65.536 12.452 65.9756 12.452C66.4151 12.452 66.8926 12.3836 67.3776 12.2546ZM76.2294 9.46074C76.2294 8.82302 76.1309 8.37509 75.9262 8.12456C75.7216 7.87403 75.373 7.75255 74.8652 7.75255C74.3575 7.75255 74.0013 7.88162 73.7967 8.14734C73.592 8.40546 73.4784 8.84579 73.4708 9.46833H76.2294V9.46074Z" fill="black"/>
</g>
<defs>
<clipPath id="clip0_3213_1530">
<rect width="104.812" height="32" fill="white" transform="translate(0.53479 0.578125)"/>
</clipPath>
</defs>
</svg>
